<svg width="36" height="46" viewBox="0 0 73 46" version="1.1" xmlns="http://www.w3.org/2000/svg" xmlns:xlink="http://www.w3.org/1999/xlink" style="fill-rule:evenodd;clip-rule:evenodd;stroke-linejoin:round;stroke-miterlimit:2;">
  <path d="M36.674,22.826c0,10.12 -8.216,18.337 -18.337,18.337c-10.12,0 -18.337,-8.216 -18.337,-18.337c0,-10.12 8.216,-18.337 18.337,-18.337c5.172,0 9.846,2.146 13.181,5.595c-1.383,1.852 -2.472,3.936 -3.198,6.182c-2.137,-3.244 -5.812,-5.386 -9.983,-5.386c-6.593,0 -11.946,5.353 -11.946,11.946c0,6.593 5.353,11.946 11.946,11.946c6.593,0 11.946,-5.353 11.946,-11.946c0,-10.12 8.216,-18.337 18.337,-18.337c10.12,0 18.337,8.216 18.337,18.337c0,10.12 -8.216,18.337 -18.337,18.337c-5.172,-0 -9.846,-2.146 -13.181,-5.595c1.383,-1.852 2.472,-3.936 3.198,-6.182c2.137,3.244 5.812,5.386 9.983,5.386c6.593,0 11.946,-5.353 11.946,-11.946c0,-6.593 -5.353,-11.946 -11.946,-11.946c-6.593,0 -11.946,5.353 -11.946,11.946Zm-6.391,-17.668l0,-5.158l6.391,0l0,5.245c-1.127,0.776 -2.175,1.657 -3.131,2.629c-0.992,-1.009 -2.084,-1.92 -3.26,-2.717Zm6.391,35.249l-0,5.245l-6.391,0l0,-5.158c1.175,-0.797 2.267,-1.708 3.26,-2.717c0.956,0.972 2.004,1.853 3.131,2.629Z" style="fill:#00FFCC;"/>
</svg>
